<svg xmlns="http://www.w3.org/2000/svg" viewBox="0 0 640 640" role="img" aria-label="Ramo floral decorativo">
  <defs>
    <filter id="softShadow" x="-20%" y="-20%" width="140%" height="140%">
      <feDropShadow dx="0" dy="8" stdDeviation="8" flood-color="#8a7d68" flood-opacity=".14"/>
    </filter>
    <radialGradient id="petal" cx="34%" cy="28%" r="72%">
      <stop offset="0" stop-color="#fffdf8"/>
      <stop offset=".62" stop-color="#f2eadb"/>
      <stop offset="1" stop-color="#d9ccb8"/>
    </radialGradient>
    <linearGradient id="leaf" x1="0" x2="1">
      <stop offset="0" stop-color="#8c9a82"/>
      <stop offset="1" stop-color="#34453d"/>
    </linearGradient>
  </defs>
  <g fill="none" stroke="#7e8c78" stroke-width="5" stroke-linecap="round" opacity=".82">
    <path d="M61 534c110-111 201-194 337-279"/>
    <path d="M21 408c111-78 190-123 307-167"/>
    <path d="M154 612c69-93 131-155 234-221"/>
  </g>
  <g filter="url(#softShadow)">
    <g fill="url(#leaf)" opacity=".78">
      <ellipse cx="182" cy="391" rx="21" ry="58" transform="rotate(-54 182 391)"/>
      <ellipse cx="258" cy="319" rx="19" ry="54" transform="rotate(-50 258 319)"/>
      <ellipse cx="326" cy="274" rx="18" ry="53" transform="rotate(-62 326 274)"/>
      <ellipse cx="116" cy="472" rx="19" ry="51" transform="rotate(-50 116 472)"/>
      <ellipse cx="303" cy="476" rx="17" ry="48" transform="rotate(-134 303 476)"/>
      <ellipse cx="392" cy="396" rx="18" ry="51" transform="rotate(-131 392 396)"/>
    </g>
    <g fill="url(#petal)">
      <ellipse cx="428" cy="166" rx="82" ry="40" transform="rotate(-28 428 166)"/>
      <ellipse cx="471" cy="204" rx="78" ry="39" transform="rotate(23 471 204)"/>
      <ellipse cx="417" cy="239" rx="80" ry="38" transform="rotate(78 417 239)"/>
      <ellipse cx="360" cy="207" rx="77" ry="37" transform="rotate(137 360 207)"/>
      <ellipse cx="382" cy="149" rx="75" ry="36" transform="rotate(-85 382 149)"/>
      <circle cx="416" cy="201" r="30" fill="#dbc6a3"/>
    </g>
    <g fill="#f7f0e3">
      <circle cx="92" cy="357" r="18"/>
      <circle cx="129" cy="342" r="13"/>
      <circle cx="150" cy="372" r="11"/>
      <circle cx="229" cy="532" r="15"/>
      <circle cx="257" cy="514" r="10"/>
      <circle cx="516" cy="309" r="14"/>
      <circle cx="545" cy="331" r="10"/>
    </g>
  </g>
</svg>
